<svg width="24" height="24" viewBox="0 0 24 24" fill="none" xmlns="http://www.w3.org/2000/svg">
<path fill-rule="evenodd" clip-rule="evenodd" d="M6 5.97128V4.47846C6 3.2907 6.47411 2.15159 7.31802 1.31171C8.16193 0.471837 9.30653 0 10.5 0H13.5C14.6935 0 15.8381 0.471837 16.682 1.31171C17.5259 2.15159 18 3.2907 18 4.47846V5.97128H21C21.7956 5.97128 22.5587 6.28584 23.1213 6.84576C23.6839 7.40567 24 8.16508 24 8.95693V14.2863C20.1594 15.7026 16.0957 16.4255 12 16.421C7.90425 16.4256 3.84055 15.7027 0 14.2863V8.95693C0 8.16508 0.31607 7.40567 0.87868 6.84576C1.44129 6.28584 2.20435 5.97128 3 5.97128H6ZM9 4.47846C9 4.08254 9.15804 3.70284 9.43934 3.42288C9.72064 3.14292 10.1022 2.98564 10.5 2.98564H13.5C13.8978 2.98564 14.2794 3.14292 14.5607 3.42288C14.842 3.70284 15 4.08254 15 4.47846V5.97128H9V4.47846ZM10.5 11.9426C10.5 11.5466 10.658 11.1669 10.9393 10.887C11.2206 10.607 11.6022 10.4497 12 10.4497H12.015C12.4128 10.4497 12.7944 10.607 13.0757 10.887C13.357 11.1669 13.515 11.5466 13.515 11.9426C13.515 12.3385 13.357 12.7182 13.0757 12.9982C12.7944 13.2781 12.4128 13.4354 12.015 13.4354H12C11.6022 13.4354 11.2206 13.2781 10.9393 12.9982C10.658 12.7182 10.5 12.3385 10.5 11.9426Z" fill="#E5E5E5"/>
<path d="M0 17.6841V21.0678C0 21.8454 0.31607 22.5912 0.87868 23.1411C1.44129 23.691 2.20435 23.9999 3 23.9999H21C21.7956 23.9999 22.5587 23.691 23.1213 23.1411C23.6839 22.5912 24 21.8454 24 21.0678V17.6841C20.1335 18.9578 16.0802 19.6055 12 19.6017C7.806 19.6017 3.7695 18.9273 0 17.6841Z" fill="#E5E5E5"/>
</svg>
