<svg width="168" height="168" viewBox="0 0 168 168" fill="none" xmlns="http://www.w3.org/2000/svg">
<path d="M84.0001 0.666748C67.5183 0.666748 51.4067 5.55416 37.7026 14.7109C23.9985 23.8677 13.3175 36.8826 7.01016 52.1098C0.702855 67.337 -0.947423 84.0925 2.26801 100.258C5.48345 116.423 13.4202 131.271 25.0746 142.926C36.7289 154.58 51.5775 162.517 67.7426 165.732C83.9077 168.948 100.663 167.297 115.89 160.99C131.118 154.683 144.132 144.002 153.289 130.298C162.446 116.593 167.333 100.482 167.333 84.0001C167.333 73.0566 165.178 62.2203 160.99 52.1098C156.802 41.9993 150.664 32.8127 142.926 25.0745C135.187 17.3363 126.001 11.198 115.89 7.01012C105.78 2.82223 94.9436 0.666748 84.0001 0.666748ZM119.833 64.0834L81.7501 114.083C80.9738 115.092 79.9768 115.909 78.8357 116.472C77.6945 117.036 76.4394 117.33 75.1668 117.333C73.901 117.34 72.6503 117.059 71.5096 116.51C70.3689 115.961 69.3682 115.16 68.5835 114.167L48.2501 88.2501C47.5771 87.3855 47.0809 86.3969 46.79 85.3406C46.499 84.2843 46.419 83.1811 46.5544 82.0939C46.6898 81.0067 47.0381 79.9568 47.5792 79.0041C48.1204 78.0515 48.8439 77.2148 49.7085 76.5417C51.4545 75.1825 53.6689 74.5725 55.8647 74.846C56.9519 74.9815 58.0018 75.3297 58.9544 75.8709C59.907 76.412 60.7438 77.1355 61.4168 78.0001L75.0001 95.3334L106.5 53.6667C107.168 52.7913 108.001 52.0558 108.953 51.5025C109.905 50.9491 110.956 50.5886 112.047 50.4416C113.138 50.2945 114.248 50.3639 115.312 50.6456C116.376 50.9273 117.375 51.4159 118.25 52.0834C119.126 52.751 119.861 53.5844 120.414 54.5362C120.968 55.488 121.328 56.5394 121.475 57.6305C121.622 58.7216 121.553 59.8309 121.271 60.8952C120.99 61.9595 120.501 62.9579 119.833 63.8334V64.0834Z" fill="#1C6AF4"/>
</svg>
