<svg width="16" height="16" viewBox="0 0 16 16" fill="none" xmlns="http://www.w3.org/2000/svg">
<path fill-rule="evenodd" clip-rule="evenodd" d="M14.8891 9.2411C15.2183 7.414 14.8081 5.53097 13.7489 4.00626C12.6897 2.48156 11.0682 1.44006 9.2411 1.11091C7.414 0.781746 5.53098 1.19188 4.00627 2.25109C2.48156 3.31029 1.44007 4.9318 1.11091 6.75891C0.781749 8.58601 1.19188 10.469 2.25109 11.9937C3.3103 13.5185 4.93181 14.5599 6.75891 14.8891C8.58601 15.2183 10.469 14.8081 11.9937 13.7489C13.5185 12.6897 14.5599 11.0682 14.8891 9.2411ZM0.126752 6.58161C0.502934 4.49349 1.69321 2.64033 3.43573 1.42981C5.17826 0.219292 7.33029 -0.249434 9.4184 0.126748C11.5065 0.502931 13.3597 1.69321 14.5702 3.43573C15.7807 5.17825 16.2494 7.33028 15.8733 9.4184C15.4971 11.5065 14.3068 13.3597 12.5643 14.5702C10.8218 15.7807 8.66973 16.2494 6.58161 15.8733C4.49349 15.4971 2.64034 14.3068 1.42982 12.5643C0.219295 10.8218 -0.249431 8.66972 0.126752 6.58161ZM5.4312 10.4372C5.32218 10.5128 5.18758 10.542 5.05702 10.5184C4.92645 10.4948 4.81062 10.4203 4.735 10.3112C4.65938 10.2022 4.63016 10.0676 4.65378 9.93705C4.67739 9.80649 4.75191 9.69066 4.86093 9.61503L9.61826 6.31015L6.89411 5.81938C6.7636 5.79587 6.64778 5.72148 6.57212 5.61257C6.49647 5.50366 6.46717 5.36916 6.49068 5.23865C6.51419 5.10815 6.58859 4.99232 6.69749 4.91667C6.8064 4.84101 6.9409 4.81171 7.07141 4.83522L10.9834 5.53999C11.1139 5.5635 11.2298 5.63789 11.3054 5.7468C11.3811 5.85571 11.4104 5.99021 11.3869 6.12072L10.6821 10.0327C10.6586 10.1632 10.5842 10.2791 10.4753 10.3547C10.3664 10.4304 10.2319 10.4597 10.1014 10.4362C9.97086 10.4127 9.85504 10.3383 9.77938 10.2294C9.70372 10.1205 9.67443 9.98595 9.69794 9.85544L10.1887 7.1313L5.4312 10.4372Z" fill="#087A2A"/>
</svg>
