<svg viewBox="0 0 395 385" fill="none" xmlns="http://www.w3.org/2000/svg">
<path d="M383.04 133.265C432.513 268.601 308.643 391.688 182.228 311.804C181.046 311.017 180.163 309.851 179.723 308.498C179.283 307.144 179.312 305.682 179.806 304.351C180.3 303.019 181.229 301.896 182.441 301.164C183.654 300.432 185.079 300.135 186.484 300.322C202.441 302.138 218.589 300.193 233.643 294.641C347.101 250.212 302.443 81.5282 183.428 97.4691C121.233 105.162 81.2447 172.764 101.203 230.444C102.488 234.22 103.756 237.946 105.041 241.722C120.855 291.286 149.842 335.612 188.873 369.912C208.488 415.236 121.774 380.05 105.893 370.986C61.0978 347.718 27.0652 307.843 11.0401 259.85C-64.2196 9.66662 290.547 -110.666 383.04 133.265Z" fill="white" fill-opacity="0.2"/>
</svg>
