<svg width="142" height="27" viewBox="0 0 142 27" fill="none" xmlns="http://www.w3.org/2000/svg">
<g clip-path="url(#clip0_336_5)">
<path d="M38.0225 23.9473V5.70734H41.2094V7.95734C44.9635 2.35859 52.8076 6.74984 52.3859 12.8661C52.8076 18.9261 44.9411 23.3398 41.2094 17.7748V23.9473H38.0225ZM42.3177 9.74984C38.892 13.7436 43.8104 19.9573 48.0198 15.9711C51.4977 12.0261 46.4823 5.70734 42.3177 9.74984Z" fill="#1F2148"/>
<path d="M54.513 12.8664C54.1099 6.69394 61.9764 2.36644 65.8313 7.95769V5.70769H69.0369V19.9952H65.8462V17.7752C61.9876 23.3027 54.1099 19.0089 54.513 12.8664ZM58.9201 9.75019C55.319 13.7439 60.536 19.9389 64.7118 15.9827C68.1935 11.9552 63.1706 5.73769 58.9201 9.75019Z" fill="#1F2148"/>
<path d="M73.7318 24.2398V21.2398C75.6798 21.3186 76.4224 20.2648 77.1501 18.6148L71.0039 5.71484H74.2617L78.598 15.6186C79.2361 14.0323 81.9043 7.42484 82.5947 5.71484H85.8301L79.3331 20.6248C78.2758 23.0323 76.4087 24.2373 73.7318 24.2398Z" fill="#1F2148"/>
<path d="M86.2515 18.2064L87.4605 15.5814C90.487 18.5589 96.9877 17.0477 94.0657 14.7639C91.405 13.5002 86.8709 13.5789 86.9493 9.71645C87.2702 4.69895 93.9986 4.58645 97.3758 6.88895L96.2003 9.4877C94.5583 8.6027 92.5432 7.9877 90.8452 8.76395C90.0989 9.11645 89.972 9.9377 90.6027 10.4027C92.323 11.2764 95.1852 11.4489 96.5436 12.6527C98.7155 14.0589 98.4692 17.9027 96.1704 19.1327C93.2709 21.0002 88.6435 20.4939 86.2515 18.2064Z" fill="#1F2148"/>
<path d="M100.876 19.9952V1.00146H104.063V19.9952H100.876Z" fill="#1F2148"/>
<path d="M107.869 3.33742C106.097 1.51867 108.802 -1.20383 110.612 0.581173C112.422 2.36617 109.642 5.16367 107.869 3.33742ZM107.627 19.9949V5.70742H110.832V19.9949H107.627Z" fill="#1F2148"/>
<path d="M115.87 18.1199C109.086 11.0287 118.975 1.18491 126.297 7.26366L124.315 9.54741C121.774 7.16616 116.676 9.06741 116.904 12.8662C116.684 16.9499 122.237 18.4912 124.83 15.9524L126.584 18.3787C123.726 20.9362 118.621 20.9999 115.87 18.1199Z" fill="#1F2148"/>
<path d="M127.849 12.8665C128.301 2.36645 143.172 3.30395 141.925 13.9915H131.152C131.835 17.9515 136.999 18.2365 139.656 16.2115L140.921 18.5815C136.01 22.279 127.603 19.7252 127.849 12.8665ZM131.126 11.6252H138.91C138.32 7.1252 131.838 7.18145 131.126 11.6252Z" fill="#1F2148"/>
<path d="M28.0815 14.1073C28.3129 24.4011 17.099 29.8761 10.3857 21.5623C10.3238 21.4819 10.2909 21.3827 10.2923 21.281C10.2937 21.1793 10.3293 21.0811 10.3934 21.0024C10.4574 20.9237 10.5461 20.8691 10.645 20.8475C10.7439 20.8259 10.8472 20.8387 10.9379 20.8836C11.9757 21.3738 13.1129 21.6139 14.2592 21.5848C22.9579 21.1911 23.8199 8.75235 15.4011 7.0911C11.0163 6.17985 6.75467 9.83235 6.77706 14.1936C6.77706 14.4786 6.77706 14.7598 6.77706 15.0448C6.70589 18.7617 7.64657 22.4274 9.4975 25.6461C9.78111 29.1636 4.72461 24.7873 3.85884 23.8086C1.36396 21.2035 -0.0204915 17.7228 0.000229279 14.1073C0.66821 -4.5489 27.4397 -4.52265 28.0815 14.1073Z" fill="#1C6AF4"/>
</g>
<defs>
<clipPath id="clip0_336_5">
<rect width="142" height="27" fill="white"/>
</clipPath>
</defs>
</svg>
