<svg width="18" height="18" viewBox="0 0 18 18" fill="none" xmlns="http://www.w3.org/2000/svg">
<path d="M17.9987 8.98349V9.00074C17.9987 13.971 13.9697 18 8.99948 18C6.93658 18.0033 4.93573 17.2946 3.33473 15.9937L3.35123 16.0072C3.25647 15.9303 3.17893 15.8343 3.12363 15.7255C3.06832 15.6167 3.0365 15.4975 3.0302 15.3756C3.02391 15.2537 3.04329 15.1318 3.0871 15.0179C3.1309 14.904 3.19814 14.8005 3.28448 14.7142L3.69323 14.3055C3.84402 14.1532 4.04563 14.0619 4.25952 14.0489C4.47341 14.0359 4.68459 14.1021 4.85273 14.235L4.85123 14.2335C6.0298 15.1715 7.49244 15.6807 8.99873 15.6772C10.0883 15.6772 11.1612 15.4106 12.1241 14.9007C13.0869 14.3907 13.9103 13.6529 14.5224 12.7516C15.1346 11.8503 15.5169 10.8128 15.636 9.72985C15.755 8.64684 15.6073 7.55115 15.2056 6.53836C14.804 5.52557 14.1606 4.62645 13.3316 3.91946C12.5026 3.21246 11.5132 2.71906 10.4497 2.4823C9.38619 2.24554 8.28091 2.27262 7.23028 2.56118C6.17966 2.84973 5.2156 3.391 4.42223 4.13774L4.42598 4.13474L6.26798 5.97674C6.34911 6.05797 6.40434 6.16144 6.42668 6.27405C6.44902 6.38667 6.43746 6.50338 6.39347 6.60943C6.34948 6.71547 6.27502 6.8061 6.17953 6.86983C6.08404 6.93357 5.97179 6.96755 5.85698 6.96749H0.581477C0.427518 6.96749 0.279866 6.90633 0.171001 6.79747C0.0621362 6.6886 0.000976563 6.54095 0.000976562 6.38699V1.11149C0.00127327 0.996844 0.0354702 0.884841 0.0992651 0.789577C0.16306 0.694313 0.253603 0.620044 0.359504 0.576112C0.465405 0.532181 0.581933 0.520549 0.694428 0.542682C0.806923 0.564814 0.91036 0.619721 0.991726 0.700495L2.78348 2.49224C4.456 0.88965 6.68384 -0.00347653 9.00023 -5.17741e-06C13.9645 -5.17741e-06 17.9905 4.01999 17.9995 8.98199V8.98274L17.9987 8.98349ZM11.434 11.8417L11.7902 11.3835C11.8606 11.2935 11.9126 11.1904 11.9431 11.0802C11.9736 10.9701 11.982 10.855 11.968 10.7415C11.9539 10.6281 11.9176 10.5186 11.8611 10.4192C11.8046 10.3198 11.729 10.2326 11.6387 10.1625L11.6365 10.161L10.1597 9.01199V5.22599C10.1597 4.74524 9.76973 4.35449 9.28823 4.35449H8.70773C8.22698 4.35449 7.83623 4.74449 7.83623 5.22599V10.146L10.21 11.9917C10.3918 12.1341 10.6226 12.1984 10.8518 12.1707C11.081 12.143 11.2898 12.0255 11.4325 11.844L11.434 11.8417Z" fill="white"/>
</svg>
