<svg width="209" height="40" viewBox="0 0 209 40" fill="none" xmlns="http://www.w3.org/2000/svg">
<g clip-path="url(#clip0_192_382)">
<path d="M55.9629 35.4778V8.45553H60.6535V11.7889C66.1789 3.49442 77.7241 9.99998 77.1035 19.0611C77.7241 28.0389 66.146 34.5778 60.6535 26.3333V35.4778H55.9629ZM62.2847 14.4444C57.2426 20.3611 64.4817 29.5666 70.6772 23.6611C75.7962 17.8166 68.4143 8.45553 62.2847 14.4444Z" fill="white"/>
<path d="M80.2344 19.0611C79.6412 9.91664 91.2193 3.50553 96.893 11.7889V8.45553H101.611V29.6222H96.915V26.3333C91.2358 34.5222 79.6412 28.1611 80.2344 19.0611ZM86.721 14.4444C81.4207 20.3611 89.0992 29.5389 95.2453 23.6778C100.37 17.7111 92.9769 8.49998 86.721 14.4444Z" fill="white"/>
<path d="M108.52 35.9111V31.4667C111.387 31.5833 112.48 30.0222 113.551 27.5778L104.505 8.46667H109.3L115.683 23.1389C116.622 20.7889 120.549 11 121.565 8.46667H126.327L116.765 30.5556C115.208 34.1222 112.46 35.9074 108.52 35.9111Z" fill="white"/>
<path d="M126.948 26.9722L128.727 23.0833C133.182 27.4944 142.75 25.2555 138.449 21.8722C134.533 20 127.86 20.1166 127.975 14.3944C128.447 6.96109 138.35 6.79442 143.321 10.2055L141.591 14.0555C139.174 12.7444 136.208 11.8333 133.709 12.9833C132.611 13.5055 132.424 14.7222 133.352 15.4111C135.884 16.7055 140.097 16.9611 142.096 18.7444C145.293 20.8278 144.93 26.5222 141.547 28.3444C137.279 31.1111 130.468 30.3611 126.948 26.9722Z" fill="white"/>
<path d="M148.473 29.6222V1.48334H153.163V29.6222H148.473Z" fill="white"/>
<path d="M158.766 4.94443C156.157 2.24999 160.139 -1.78334 162.803 0.861101C165.467 3.50555 161.375 7.64999 158.766 4.94443ZM158.409 29.6222V8.45555H163.127V29.6222H158.409Z" fill="white"/>
<path d="M170.542 26.8444C160.556 16.3389 175.111 1.75553 185.888 10.7611L182.971 14.1444C179.231 10.6166 171.728 13.4333 172.063 19.0611C171.739 25.1111 179.912 27.3944 183.729 23.6333L186.311 27.2277C182.103 31.0166 174.59 31.1111 170.542 26.8444Z" fill="white"/>
<path d="M188.172 19.0611C188.837 3.50556 210.724 4.89445 208.89 20.7278H193.033C194.038 26.5944 201.64 27.0167 205.551 24.0167L207.413 27.5278C200.184 33.0056 187.81 29.2222 188.172 19.0611ZM192.995 17.2222H204.452C203.584 10.5556 194.044 10.6389 192.995 17.2222Z" fill="white"/>
<path d="M41.3308 20.9C41.6713 36.15 25.1664 44.2611 15.2854 31.9445C15.1944 31.8252 15.146 31.6783 15.148 31.5277C15.1501 31.3771 15.2025 31.2316 15.2968 31.1149C15.3911 30.9983 15.5217 30.9174 15.6672 30.8855C15.8127 30.8535 15.9647 30.8723 16.0983 30.9389C17.6257 31.6651 19.2995 32.0208 20.9866 31.9778C33.7896 31.3945 35.0584 12.9667 22.6673 10.5056C16.2137 9.15557 9.94125 14.5667 9.9742 21.0278C9.9742 21.45 9.9742 21.8667 9.9742 22.2889C9.86945 27.7953 11.254 33.226 13.9782 37.9945C14.3957 43.2056 6.95333 36.7222 5.67908 35.2722C2.00704 31.4129 -0.0306482 26.2562 -0.000150821 20.9C0.983004 -6.73888 40.3861 -6.69999 41.3308 20.9Z" fill="white"/>
</g>
<defs>
<clipPath id="clip0_192_382">
<rect width="209" height="40" fill="white"/>
</clipPath>
</defs>
</svg>
