<svg width="168" height="168" viewBox="0 0 168 168" fill="none" xmlns="http://www.w3.org/2000/svg">
<path d="M84 0.666504C67.5182 0.666504 51.4066 5.55392 37.7025 14.7107C23.9984 23.8675 13.3173 36.8824 7.01004 52.1095C0.702733 67.3367 -0.947545 84.0923 2.26789 100.257C5.48333 116.422 13.4201 131.271 25.0744 142.925C36.7288 154.58 51.5774 162.517 67.7425 165.732C83.9076 168.947 100.663 167.297 115.89 160.99C131.117 154.682 144.132 144.001 153.289 130.297C162.446 116.593 167.333 100.482 167.333 83.9998C167.333 73.0563 165.178 62.22 160.99 52.1095C156.802 41.9991 150.664 32.8125 142.926 25.0743C135.187 17.3361 126.001 11.1978 115.89 7.00988C105.78 2.82198 94.9435 0.666504 84 0.666504ZM119.833 64.0832L81.75 114.083C80.9737 115.092 79.9767 115.909 78.8355 116.472C77.6944 117.036 76.4393 117.33 75.1667 117.333C73.9009 117.34 72.6502 117.058 71.5095 116.51C70.3688 115.961 69.3681 115.16 68.5833 114.166L48.25 88.2498C47.577 87.3853 47.0808 86.3967 46.7899 85.3404C46.4989 84.2841 46.4189 83.1809 46.5543 82.0936C46.6897 81.0064 47.0379 79.9565 47.5791 79.0039C48.1203 78.0512 48.8438 77.2145 49.7083 76.5415C51.4543 75.1823 53.6688 74.5723 55.8645 74.8458C56.9518 74.9812 58.0016 75.3294 58.9543 75.8706C59.9069 76.4118 60.7436 77.1353 61.4167 77.9998L75 95.3332L106.5 53.6665C107.168 52.791 108.001 52.0556 108.953 51.5022C109.905 50.9488 110.956 50.5884 112.047 50.4413C113.138 50.2943 114.248 50.3636 115.312 50.6453C116.376 50.927 117.375 51.4156 118.25 52.0832C119.125 52.7507 119.861 53.5842 120.414 54.5359C120.968 55.4877 121.328 56.5392 121.475 57.6302C121.622 58.7213 121.553 59.8307 121.271 60.895C120.989 61.9593 120.501 62.9577 119.833 63.8332V64.0832Z" fill="#1C6AF4"/>
</svg>
