<svg width="78" height="78" viewBox="0 0 78 78" fill="none" xmlns="http://www.w3.org/2000/svg">
<path d="M24.9486 23.5357C24.9486 23.5357 24.5997 29.3017 27.5072 32.5132L28.8446 23.5357H24.9486Z" fill="#373133"/>
<path d="M27.3618 22.1123C27.3618 22.1123 26.2029 35.8309 26.9286 42.4794C28.0597 52.8389 35.2121 51.891 35.2121 51.891L34.6559 71.2984H49.1099L46.5223 37.9141C46.5223 37.9141 48.9354 36.9287 48.761 32.0387C48.7009 30.3554 48.4703 29.1921 47.2492 28.3163C43.4801 25.6131 39.5152 19.339 39.5152 19.339L27.3618 22.1123Z" fill="#703832"/>
<path d="M21.3142 14.5946C21.3142 14.5946 19.2208 26.7836 28.2922 25.1048L39.0792 23.0247C39.0792 23.0247 40.0677 27.3309 42.8589 28.0603C42.8589 28.0603 45.0105 33.7533 42.1611 38.8623C42.1611 38.8623 40.7073 40.6148 38.7883 40.1763C38.7883 40.1763 35.2993 38.5704 32.7988 38.8623C32.7988 38.8623 30.0659 39.1543 26.9258 41.5629C26.9258 41.5629 26.5193 52.292 33.0316 53.3138C39.5438 54.3355 43.2659 46.161 43.2659 46.161C43.2659 46.161 47.2201 37.9136 45.5338 29.5201C45.5338 29.5201 46.3187 28.3158 47.4818 28.5348C47.4818 28.5348 51.4069 16.3824 43.1496 17.4044C43.1496 17.4044 41.1143 7.84341 28.9028 13.3171C27.1003 14.1255 22.6808 10.8359 21.3142 14.5946Z" fill="#1C2E34"/>
<path d="M36.2882 42.4381C36.2571 42.6484 36.2006 42.8515 36.1206 43.0404C35.8467 43.7281 35.1367 44.8022 33.3352 45.1635C32.3782 45.3687 31.3951 45.0976 30.5946 44.408C30.1605 44.0581 29.8347 43.5325 29.6713 42.9184C29.6239 42.715 29.6001 42.5041 29.6006 42.2921C29.6006 42.2921 33.0318 41.1985 36.2882 42.4381Z" fill="#F04E53"/>
<path d="M36.2882 42.4381C36.2571 42.6484 36.2006 42.8515 36.1206 43.0404C34.0993 42.7742 31.0069 42.8629 29.6713 42.9184C29.6239 42.715 29.6001 42.5041 29.6006 42.2921C29.6006 42.2921 33.0318 41.1985 36.2882 42.4381Z" fill="white"/>
<path d="M45.7076 28.3527L38.2554 29.9276L38.3727 30.8026L45.825 29.2277L45.7076 28.3527Z" fill="#373133"/>
<path d="M35.8134 35.6372C34.2405 35.6372 32.9595 33.8501 32.9595 31.6535C32.9595 29.4569 34.2398 27.6701 35.8134 27.6701C37.3871 27.6701 38.6672 29.4569 38.6672 31.6535C38.6672 33.8501 37.3871 35.6372 35.8134 35.6372ZM35.8134 28.5574C34.6293 28.5574 33.6664 29.9463 33.6664 31.6535C33.6664 33.3607 34.6296 34.7498 35.8134 34.7498C36.9972 34.7498 37.9603 33.3607 37.9603 31.6535C37.9603 29.9463 36.9972 28.5574 35.8134 28.5574Z" fill="#373133"/>
<path d="M28.7189 36.3671C27.146 36.3671 25.865 34.58 25.865 32.3836C25.865 30.1873 27.1453 28.3999 28.7189 28.3999C30.2926 28.3999 31.5729 30.187 31.5729 32.3836C31.5729 34.5802 30.2926 36.3671 28.7189 36.3671ZM28.7189 29.2873C27.5348 29.2873 26.5719 30.6762 26.5719 32.3836C26.5719 34.0911 27.5352 35.4797 28.7189 35.4797C29.9027 35.4797 30.866 34.0908 30.866 32.3836C30.866 30.6764 29.9027 29.2873 28.7189 29.2873Z" fill="#373133"/>
<path d="M31.4868 32.3087L30.9521 31.7284C31.8638 30.4051 33.0415 30.9948 33.5369 31.4917L33.0969 32.1862C33.0037 32.0944 32.1672 31.3206 31.4868 32.3087Z" fill="#373133"/>
<path d="M32.2517 58.1779C32.2517 58.1779 34.1796 68.476 34.5568 68.476C34.5568 68.476 43.5477 62.1678 50.0059 56.957L65.0681 65.4873C66.5634 66.3342 67.864 67.6416 68.849 69.2883C69.834 70.9349 70.4714 72.8672 70.7022 74.9058C70.7022 74.9058 77.4256 119.648 77.3045 132.791C77.2354 140.288 76.3517 144.059 68.3986 142.95C61.3526 141.967 43.7372 136.158 43.7372 136.158H22.7666V112.209L10.6007 121.138C9.55733 121.904 8.39676 122.384 7.1951 122.548C5.99344 122.712 4.7778 122.555 3.62785 122.087C2.47791 121.62 1.4196 120.853 0.5223 119.837C-0.375005 118.82 -1.09105 117.577 -1.57893 116.189L-14.1377 77.9533L-5.30084 65.5307L7.03189 88.9032L17.8894 66.7528C19.1503 64.1805 21.1255 62.2854 23.434 61.4331L32.2517 58.1779Z" fill="#133455"/>
<path d="M26.6253 84.6082C26.6253 84.3028 25.1661 82.4713 28.0846 78.1973C31.003 73.9233 36.8402 70.2606 36.8402 70.2606L41.2178 73.3132L26.6253 84.6082Z" fill="#DBDCF1"/>
<path d="M40.2447 70.2601L41.7242 70.5028L41.704 71.7865L28.0852 83.081L23.464 84.6083L6.43945 84.9136L6.78833 84.3421L23.2199 83.3869L27.8409 81.8605L40.2447 70.2601Z" fill="#AE2531"/>
<path d="M48.8797 103.992L35.0164 117.118L32.1373 118.021L31.1246 118.338L12.8836 118.644L6.42383 84.941L23.1096 84.1602L23.3411 84.1491L27.7189 82.929L41.8261 70.4133L48.8797 103.992Z" fill="#DD2F3F"/>
<path d="M34.164 66.2915L28.5703 69.0389L30.0296 57.1316L34.164 66.2915Z" fill="#087A2A"/>
<path d="M35.138 55.6054L30.0303 57.1316L34.542 68.8021L35.6488 66.5967L35.138 55.6054Z" fill="#0B9B36"/>
<path d="M43.6502 63.2387L34.4629 68.6649L40.002 58.3547L41.2181 57.4154L43.6502 63.2387Z" fill="#087A2A"/>
<path d="M43.8934 72.3967L40.002 58.3548L49.4878 51.0284L51.1903 56.5231L43.8934 72.3967Z" fill="#0B9B36"/>
</svg>
